# xmcd
#
# Track frame offsets: 
#        150
#        31435
#        59462
#        93900
#        126740
#
# Disc length: 2530 seconds
#
# Revision: 2
# Processed by: cddbd v1.5.2PL0 Copyright (c) Steve Scherf et al.
# Submitted via: ExactAudioCopy v0.95b4
#
DISCID=4409e005
DTITLE=Grant Green - Am I Blue
DYEAR=1963
DGENRE=Jazz
TTITLE0=Am I Blue
TTITLE1=Take These Chains From My Heart
TTITLE2=I Wanna Be Loved
TTITLE3=Sweet Slumber
TTITLE4=For All We Know
EXTD=JOHNY COLES\nJOE HENDERSON\nJOHN PATTON\nBEN DIXON
EXTT0=
EXTT1=
EXTT2=
EXTT3=
EXTT4=
PLAYORDER=
